<?xml version="1.0" encoding="UTF-8" standalone="yes"?>
<svg xmlns="http://www.w3.org/2000/svg" xmlns:xlink="http://www.w3.org/1999/xlink" version="1.1" viewBox="0 0 900 600">
  <path fill="#e9edee" d="m0 0l900 0l0 600l-900 0z"/>
  <g xmlns="http://www.w3.org/2000/svg" id="icon" transform="translate(301,95) scale(0.58)">
    <g xmlns="http://www.w3.org/2000/svg">
		<polygon style="fill:#FBE6B7;" points="180.006,414.017 171.785,422.16 115.097,478.926 115.019,478.926 113.923,480.023 113.844,479.945 113.375,479.474 113.297,479.474 73.6,439.701 72.895,439.074 72.19,438.29 32.494,398.671 31.867,398.046 97.95,331.961"/>
		<path style="fill:#FFFFFF;" d="M511.439,67.631c-0.627,2.739-2.036,5.402-4.15,7.516l-35.938,35.937l-7.673,7.673l-4.15,4.15 c-6.264,6.264-16.599,6.264-22.941,0l-23.724-23.724L389.06,75.38c-6.342-6.341-6.342-16.676,0-22.941l4.15-4.15l7.673-7.673 l9.552-9.552L436.743,4.68c2.114-2.114,4.776-3.525,7.595-4.15c5.324-1.409,11.275,0,15.425,4.15l23.724,23.803l23.802,23.722 C511.439,56.355,512.848,62.305,511.439,67.631z"/>
		<polygon style="fill:#FEF9E7;" points="477.145,116.88 404.72,189.306 363.692,148.276 322.664,107.248 395.089,34.823 471.351,111.085"/>
		<polygon style="fill:#BBBA9C;" points="486.697,107.248 477.145,116.88 469.472,124.473 463.678,118.757 393.21,48.29 387.416,42.498 404.641,25.271 480.903,101.533"/>
		<polygon style="fill:#EDA8AA;" points="417.874,176.072 404.72,189.306 309.901,284.123 180.006,414.017 171.785,422.16 130.835,381.134 89.808,340.105 97.95,331.961 227.845,202.067 322.664,107.248 335.818,94.095 376.846,135.122"/>
		<path style="fill:#FBE6B7;" d="M115.019,478.926l-1.096,0.314l-0.548,0.235h-0.078l-72.112,20.907 c-0.078-0.157-0.157-0.237-0.157-0.392c-3.132-6.029-7.125-11.745-12.214-16.835c-5.089-5.089-10.805-9.16-16.912-12.215 c-0.078-0.076-0.235-0.076-0.313-0.157l20.906-72.112l0.235-0.703l0.314-1.097l0.861,0.862L74.07,437.9l1.488,1.487l38.601,38.6 L115.019,478.926z"/>
		<path style="fill:#6C3734;" d="M41.654,499.833l-0.626,0.157l-0.078,0.078l-26.543,7.751L0,511.969l4.15-14.407l7.751-26.622 l0.235-0.703c6.186,3.131,12.058,7.203,17.226,12.372C34.529,487.775,38.601,493.647,41.654,499.833z"/>
		<polygon style="fill:#EDA8AA;" points="309.901,284.123 180.006,414.017 115.097,478.926 113.766,480.258 113.844,479.945 113.923,479.239 114.158,477.987 122.457,431.087 75.557,439.387 73.6,439.701 71.955,440.012 71.877,440.012 72.19,438.29 72.504,436.333 80.803,389.432 33.903,397.732 32.728,397.968 31.945,398.124 31.789,398.124 97.95,331.961 227.845,202.067"/>
	</g>
	<g xmlns="http://www.w3.org/2000/svg">
		<polygon style="fill:#FBE6B7;" points="180.006,414.017 171.785,422.16 115.097,478.926 115.019,478.926 113.923,480.023 113.844,479.945 113.375,479.474 113.297,479.474 73.6,439.701 72.895,439.074 72.19,438.29 32.494,398.671 31.867,398.046 97.95,331.961"/>
		<path style="fill:#FFFFFF;" d="M511.439,67.631c-0.627,2.739-2.036,5.402-4.15,7.516l-35.938,35.937l-7.673,7.673l-4.15,4.15 c-6.264,6.264-16.599,6.264-22.941,0l-23.724-23.724L389.06,75.38c-6.342-6.341-6.342-16.676,0-22.941l4.15-4.15l7.673-7.673 l9.552-9.552L436.743,4.68c2.114-2.114,4.776-3.525,7.595-4.15c5.324-1.409,11.275,0,15.425,4.15l23.724,23.803l23.802,23.722 C511.439,56.355,512.848,62.305,511.439,67.631z"/>
		<polygon style="fill:#FEF9E7;" points="477.145,116.88 404.72,189.306 363.692,148.276 322.664,107.248 395.089,34.823 471.351,111.085"/>
		<polygon style="fill:#BBBA9C;" points="486.697,107.248 477.145,116.88 469.472,124.473 463.678,118.757 393.21,48.29 387.416,42.498 404.641,25.271 480.903,101.533"/>
		<polygon style="fill:#EDA8AA;" points="417.874,176.072 404.72,189.306 309.901,284.123 180.006,414.017 171.785,422.16 130.835,381.134 89.808,340.105 97.95,331.961 227.845,202.067 322.664,107.248 335.818,94.095 376.846,135.122"/>
		<path style="fill:#FBE6B7;" d="M115.019,478.926l-1.096,0.314l-0.548,0.235h-0.078l-72.112,20.907 c-0.078-0.157-0.157-0.237-0.157-0.392c-3.132-6.029-7.125-11.745-12.214-16.835c-5.089-5.089-10.805-9.16-16.912-12.215 c-0.078-0.076-0.235-0.076-0.313-0.157l20.906-72.112l0.235-0.703l0.314-1.097l0.861,0.862L74.07,437.9l1.488,1.487l38.601,38.6 L115.019,478.926z"/>
		<path style="fill:#6C3734;" d="M41.654,499.833l-0.626,0.157l-0.078,0.078l-26.543,7.751L0,511.969l4.15-14.407l7.751-26.622 l0.235-0.703c6.186,3.131,12.058,7.203,17.226,12.372C34.529,487.775,38.601,493.647,41.654,499.833z"/>
		<polygon style="fill:#EDA8AA;" points="309.901,284.123 180.006,414.017 115.097,478.926 113.766,480.258 113.844,479.945 113.923,479.239 114.158,477.987 122.457,431.087 75.557,439.387 73.6,439.701 71.955,440.012 71.877,440.012 72.19,438.29 72.504,436.333 80.803,389.432 33.903,397.732 32.728,397.968 31.945,398.124 31.789,398.124 97.95,331.961 227.845,202.067"/>
	</g>
	<path xmlns="http://www.w3.org/2000/svg" style="opacity:0.08;fill:#040000;" d="M480.94,101.506l26.324-26.324c6.315-6.315,6.314-16.646,0-22.961L483.5,28.457 L0.016,511.941l40.964-11.888c0.056,0.11,0.124,0.215,0.178,0.325l72.172-20.943l0.49,0.49l-0.056,0.317l0.187-0.187l57.868-57.868 l8.176-8.176l129.927-129.927l94.799-94.799l13.182-13.182l51.598-51.598l7.613-7.613l9.608-9.608L480.94,101.506z"/>
  </g>
  <path fill="#595959" d="m237.27148 473.8373l0 43.68753l-13.25 0l0 -68.15628l10.265625 0l35.515625 44.734375l0 -44.640625l13.25 0l0 68.06253l-10.75 0l-35.03125 -43.68753zm81.98233 44.640656q-6.15625 0 -11.046875 -2.109375q-4.890625 -2.109375 -8.296875 -5.7031555q-3.40625 -3.609375 -5.234375 -8.3125q-1.828125 -4.703125 -1.828125 -9.890625q0 -5.28125 1.828125 -9.984375q1.828125 -4.703125 5.234375 -8.296875q3.40625 -3.59375 8.296875 -5.703125q4.890625 -2.125 11.046875 -2.125q6.140625 0 10.984375 2.125q4.84375 2.109375 8.25 5.703125q3.421875 3.59375 5.234375 8.296875q1.828125 4.703125 1.828125 9.984375q0 5.1875 -1.828125 9.890625q-1.8125 4.703125 -5.171875 8.3125q-3.359375 3.5937805 -8.265625 5.7031555q-4.890625 2.109375 -11.03125 2.109375zm-13.15625 -26.015656q0 3.359375 1.0 6.109375q1.015625 2.734375 2.78125 4.75q1.78125 2.015625 4.171875 3.125q2.40625 1.09375 5.203125 1.09375q2.78125 0 5.171875 -1.09375q2.40625 -1.109375 4.171875 -3.125q1.78125 -2.015625 2.78125 -4.796875q1.015625 -2.796875 1.015625 -6.15625q0 -3.265625 -1.015625 -6.046875q-1.0 -2.78125 -2.78125 -4.796875q-1.765625 -2.015625 -4.171875 -3.109375q-2.390625 -1.109375 -5.171875 -1.109375q-2.796875 0 -5.203125 1.15625q-2.390625 1.140625 -4.171875 3.15625q-1.765625 2.015625 -2.78125 4.8125q-1.0 2.78125 -1.0 6.03125zm44.925995 -0.09375q0 -5.28125 1.828125 -9.984375q1.828125 -4.703125 5.28125 -8.25q3.453125 -3.546875 8.34375 -5.65625q4.90625 -2.125 11.046875 -2.125q8.25 0 14.0625 3.5625q5.8125 3.546875 8.6875 9.3125l-12.578125 3.828125q-1.625 -2.78125 -4.3125 -4.265625q-2.6875 -1.484375 -5.953125 -1.484375q-2.796875 0 -5.203125 1.109375q-2.390625 1.09375 -4.171875 3.0625q-1.765625 1.96875 -2.78125 4.75q-1.0 2.78125 -1.0 6.140625q0 3.359375 1.046875 6.15625q1.0625 2.78125 2.828125 4.796875q1.78125 2.015625 4.1875 3.125q2.40625 1.09375 5.09375 1.09375q3.453125 0 6.375 -1.71875q2.9375 -1.734375 4.078125 -4.234375l12.578125 3.84375q-2.59375 5.75 -8.546875 9.4062805q-5.953125 3.640625 -14.296875 3.640625q-6.140625 0 -11.046875 -2.109375q-4.890625 -2.109375 -8.34375 -5.7031555q-3.453125 -3.609375 -5.328125 -8.359375q-1.875 -4.75 -1.875 -9.9375zm104.06586 25.15628l-12.859375 0l0 -28.21878q0 -5.953125 -2.21875 -8.78125q-2.203125 -2.84375 -6.234375 -2.84375q-1.734375 0 -3.65625 0.78125q-1.90625 0.765625 -3.640625 2.15625q-1.734375 1.390625 -3.171875 3.3125q-1.4375 1.90625 -2.109375 4.21875l0 29.37503l-12.859375 0l0 -70.078156l12.859375 0l0 29.09375q2.78125 -4.90625 7.53125 -7.546875q4.765625 -2.640625 10.515625 -2.640625q4.890625 0 7.96875 1.6875q3.078125 1.671875 4.796875 4.46875q1.734375 2.78125 2.40625 6.328125q0.671875 3.546875 0.671875 7.296875l0 31.390656zm11.233978 0l0 -50.296906l12.859375 0l0 50.296906l-12.859375 0zm0 -57.31253l0 -12.765625l12.859375 0l0 12.765625l-12.859375 0zm48.76999 57.31253l0 -68.15628l13.25 0l0 56.546875l34.75 0l0 11.6094055l-48.0 0zm78.04834 0.953125q-6.15625 0 -11.046875 -2.109375q-4.890625 -2.109375 -8.296875 -5.7031555q-3.40625 -3.609375 -5.234375 -8.3125q-1.828125 -4.703125 -1.828125 -9.890625q0 -5.28125 1.828125 -9.984375q1.828125 -4.703125 5.234375 -8.296875q3.40625 -3.59375 8.296875 -5.703125q4.890625 -2.125 11.046875 -2.125q6.140625 0 10.984375 2.125q4.84375 2.109375 8.25 5.703125q3.421875 3.59375 5.234375 8.296875q1.828125 4.703125 1.828125 9.984375q0 5.1875 -1.828125 9.890625q-1.8125 4.703125 -5.171875 8.3125q-3.359375 3.5937805 -8.265625 5.7031555q-4.890625 2.109375 -11.03125 2.109375zm-13.15625 -26.015656q0 3.359375 1.0 6.109375q1.015625 2.734375 2.78125 4.75q1.78125 2.015625 4.171875 3.125q2.40625 1.09375 5.203125 1.09375q2.78125 0 5.171875 -1.09375q2.40625 -1.109375 4.171875 -3.125q1.78125 -2.015625 2.78125 -4.796875q1.015625 -2.796875 1.015625 -6.15625q0 -3.265625 -1.015625 -6.046875q-1.0 -2.78125 -2.78125 -4.796875q-1.765625 -2.015625 -4.171875 -3.109375q-2.390625 -1.109375 -5.171875 -1.109375q-2.796875 0 -5.203125 1.15625q-2.390625 1.140625 -4.171875 3.15625q-1.765625 2.015625 -2.78125 4.8125q-1.0 2.78125 -1.0 6.03125zm67.769714 25.34378q-5.078125 0 -9.21875 -2.015625q-4.125 -2.015625 -7.15625 -5.5156555q-3.015625 -3.5 -4.65625 -8.109375q-1.625 -4.609375 -1.625 -9.796875q0 -5.46875 1.734375 -10.171875q1.734375 -4.703125 4.796875 -8.25q3.078125 -3.5625 7.390625 -5.578125q4.328125 -2.015625 9.5 -2.015625q5.859375 0 10.265625 2.640625q4.421875 2.640625 7.3125 7.0625l0 -8.828125l11.234375 0l0 47.890656q0 5.578125 -2.125 9.984375q-2.109375 4.421875 -5.8125 7.484375q-3.6875 3.078125 -8.828125 4.703125q-5.125 1.640625 -11.171875 1.640625q-8.265625 0 -13.875 -2.734375q-5.609375 -2.734375 -9.65625 -7.734375l7.015625 -6.8125q2.875 3.5625 7.234375 5.578125q4.375 2.015625 9.28125 2.015625q2.96875 0 5.703125 -0.828125q2.734375 -0.8125 4.84375 -2.546875q2.125 -1.71875 3.3125 -4.40625q1.203125 -2.6875 1.203125 -6.34375l0 -6.3281555q-2.484375 4.3125305 -7.0 6.6719055q-4.515625 2.34375 -9.703125 2.34375zm4.328125 -10.2656555q2.109375 0 4.03125 -0.671875q1.921875 -0.671875 3.546875 -1.8125q1.640625 -1.15625 2.875 -2.6875q1.25 -1.546875 1.921875 -3.28125l0 -12.0q-1.71875 -4.40625 -5.421875 -7.09375q-3.6875 -2.6875 -7.71875 -2.6875q-2.984375 0 -5.390625 1.296875q-2.390625 1.296875 -4.125 3.453125q-1.71875 2.15625 -2.640625 4.9375q-0.90625 2.78125 -0.90625 5.765625q0 3.0625 1.046875 5.765625q1.0625 2.6875 2.9375 4.703125q1.875 2.015625 4.359375 3.171875q2.5 1.140625 5.484375 1.140625z" fill-rule="nonzero"/>
</svg>